<svg width="40" height="27" viewBox="0 0 40 27" fill="none" xmlns="http://www.w3.org/2000/svg">
<path d="M20 4.44444C17.5859 4.44444 17.2832 4.45468 16.3351 4.49793C15.389 4.54109 14.7428 4.69137 14.1774 4.91107C13.5929 5.13823 13.0972 5.44219 12.603 5.93634C12.1089 6.43049 11.8049 6.92626 11.5778 7.51078C11.358 8.07617 11.2078 8.72233 11.1646 9.66845C11.1213 10.6166 11.1111 10.9193 11.1111 13.3334C11.1111 15.7474 11.1213 16.0501 11.1646 16.9982C11.2078 17.9443 11.358 18.5905 11.5778 19.1559C11.8049 19.7404 12.1089 20.2361 12.603 20.7303C13.0972 21.2245 13.5929 21.5284 14.1774 21.7556C14.7428 21.9753 15.389 22.1256 16.3351 22.1688C17.2832 22.212 17.5859 22.2222 20 22.2222C22.4141 22.2222 22.7168 22.212 23.6649 22.1688C24.611 22.1256 25.2571 21.9753 25.8225 21.7556C26.4071 21.5284 26.9028 21.2245 27.397 20.7303C27.8911 20.2361 28.1951 19.7404 28.4222 19.1559C28.6419 18.5905 28.7922 17.9443 28.8354 16.9982C28.8786 16.0501 28.8889 15.7474 28.8889 13.3334C28.8889 10.9193 28.8786 10.6166 28.8354 9.66845C28.7922 8.72233 28.6419 8.07617 28.4222 7.51078C28.1951 6.92626 27.8911 6.43049 27.397 5.93634C26.9028 5.44219 26.4071 5.13823 25.8225 4.91107C25.2571 4.69137 24.611 4.54109 23.6649 4.49793C22.7168 4.45468 22.4141 4.44444 20 4.44444ZM20 6.04603C22.3734 6.04603 22.6546 6.05511 23.5919 6.09788C24.4585 6.13739 24.9292 6.28219 25.2424 6.40393C25.6573 6.56519 25.9534 6.75779 26.2644 7.06884C26.5755 7.3799 26.7681 7.67602 26.9294 8.09091C27.0511 8.40413 27.1959 8.87481 27.2354 9.74146C27.2782 10.6788 27.2873 10.9599 27.2873 13.3333C27.2873 15.7068 27.2782 15.9879 27.2354 16.9252C27.1959 17.7919 27.0511 18.2625 26.9294 18.5757C26.7681 18.9907 26.5755 19.2868 26.2644 19.5978C25.9534 19.9089 25.6573 20.1015 25.2424 20.2628C24.9292 20.3845 24.4585 20.5293 23.5919 20.5688C22.6547 20.6116 22.3736 20.6206 20 20.6206C17.6264 20.6206 17.3453 20.6116 16.4081 20.5688C15.5414 20.5293 15.0708 20.3845 14.7576 20.2628C14.3427 20.1015 14.0466 19.9089 13.7355 19.5978C13.4245 19.2868 13.2319 18.9907 13.0706 18.5758C12.9489 18.2625 12.8041 17.7919 12.7645 16.9252C12.7218 15.9879 12.7127 15.7068 12.7127 13.3333C12.7127 10.9599 12.7218 10.6788 12.7645 9.74146C12.8041 8.87479 12.9489 8.40413 13.0706 8.09094C13.2319 7.67599 13.4245 7.3799 13.7355 7.06887C14.0466 6.75779 14.3427 6.56519 14.7576 6.40393C15.0708 6.28219 15.5415 6.13739 16.4081 6.09788C17.3454 6.05511 17.6266 6.04603 20 6.04603" fill="white"/>
<path d="M20 16.2963C18.3636 16.2963 17.037 14.9698 17.037 13.3334C17.037 11.6969 18.3636 10.3704 20 10.3704C21.6364 10.3704 22.9629 11.6969 22.9629 13.3334C22.9629 14.9698 21.6364 16.2963 20 16.2963ZM20 8.76877C17.4791 8.76877 15.4355 10.8124 15.4355 13.3334C15.4355 15.8543 17.4791 17.8979 20 17.8979C22.5209 17.8979 24.5645 15.8543 24.5645 13.3334C24.5645 10.8124 22.5209 8.76877 20 8.76877ZM25.8116 8.58842C25.8116 9.17755 25.334 9.65508 24.7449 9.65508C24.1558 9.65508 23.6782 9.17755 23.6782 8.58842C23.6782 7.99932 24.1558 7.52173 24.7449 7.52173C25.334 7.52173 25.8116 7.99932 25.8116 8.58842Z" fill="white"/>
</svg>
