<svg width="40" height="27" viewBox="0 0 40 27" fill="none" xmlns="http://www.w3.org/2000/svg">
<path d="M15.942 22.2222C24.197 22.2222 28.7114 15.3833 28.7114 9.4528C28.7114 9.25858 28.7074 9.06523 28.6987 8.87269C29.577 8.23714 30.3351 7.45019 30.9374 6.54872C30.1332 6.9062 29.2679 7.14681 28.3601 7.25531C29.2866 6.69964 29.998 5.82077 30.3336 4.773C29.4526 5.29566 28.4888 5.66408 27.4838 5.86239C26.6648 4.99006 25.4989 4.44444 24.2078 4.44444C21.7294 4.44444 19.7196 6.45432 19.7196 8.93178C19.7196 9.28397 19.759 9.62655 19.836 9.95511C16.106 9.76741 12.7985 7.98157 10.5849 5.26605C10.1862 5.9509 9.97651 6.72932 9.97719 7.52176C9.97719 9.07881 10.7695 10.4534 11.9744 11.2575C11.2617 11.2358 10.5646 11.0433 9.94181 10.6962C9.94115 10.7151 9.94115 10.7334 9.94115 10.7535C9.94115 12.927 11.4881 14.7417 13.5417 15.1529C13.156 15.258 12.758 15.3111 12.3583 15.3109C12.0752 15.3107 11.7927 15.2836 11.5148 15.2299C12.0862 17.0131 13.743 18.3108 15.7073 18.347C14.1712 19.551 12.2362 20.2681 10.1332 20.2681C9.77137 20.2681 9.41396 20.2475 9.06265 20.206C11.0489 21.4791 13.4074 22.222 15.9422 22.222" fill="white"/>
</svg>
